<svg width="32" height="32" viewBox="0 0 32 32" fill="none"
    xmlns="http://www.w3.org/2000/svg">
    <g clip-path="url(#clip0_1_944)">
        <g filter="url(#filter0_d_1_944)">
            <path d="M31.524 6.58268C30.4107 7.07601 29.2147 7.40934 27.9573 7.56001C29.24 6.79201 30.224 5.57334 30.688 4.12268C29.488 4.83468 28.1587 5.35201 26.744 5.62934C25.6107 4.42401 23.9973 3.66934 22.2107 3.66934C18.7813 3.66934 16 6.45068 16 9.88268C16 10.368 16.056 10.84 16.16 11.296C10.996 11.036 6.42133 8.56268 3.35733 4.80534C2.824 5.72534 2.51733 6.79201 2.51733 7.92801C2.51733 10.0827 3.61466 11.9853 5.28 13.0987C4.26133 13.0653 3.304 12.7867 2.46666 12.3213V12.4013C2.46666 15.4107 4.60666 17.9213 7.44933 18.492C6.92666 18.6333 6.37866 18.708 5.81333 18.708C5.41333 18.708 5.02266 18.6707 4.644 18.5987C5.43466 21.0653 7.728 22.8627 10.4467 22.9107C8.32 24.5773 5.64133 25.5707 2.732 25.5707C2.23066 25.5707 1.736 25.5413 1.24933 25.484C3.99866 27.248 7.26266 28.2747 10.7693 28.2747C22.196 28.2747 28.4427 18.8107 28.4427 10.6027C28.4427 10.336 28.436 10.0667 28.424 9.80001C29.6373 8.92267 30.6907 7.83068 31.5213 6.58668L31.524 6.58268Z" fill="#1DA1F2"/>
            <path d="M10.4555 22.4108C8.24188 22.3717 6.33364 21.0706 5.42148 19.1969C5.55117 19.2043 5.68182 19.208 5.81333 19.208C6.42292 19.208 7.0148 19.1275 7.57985 18.9747L7.54774 18.0018C5.16796 17.524 3.32387 15.5668 3.01296 13.1319C3.71324 13.4091 4.47148 13.5725 5.26364 13.5984L7.01276 13.6556L5.55788 12.683C4.02577 11.6587 3.01733 9.90914 3.01733 7.92801C3.01733 7.14048 3.17744 6.38949 3.46643 5.70489C6.6036 9.23876 11.0963 11.5417 16.1349 11.7954L16.7943 11.8286L16.6475 11.1848C16.5515 10.764 16.5 10.3293 16.5 9.88268C16.5 6.72668 19.0576 4.16934 22.2107 4.16934C23.8538 4.16934 25.337 4.86285 26.3797 5.97185L26.569 6.17316L26.8402 6.12C27.8125 5.92939 28.746 5.62982 29.6274 5.235C29.146 6.01013 28.4839 6.66194 27.7005 7.13103L28.0168 8.05646C28.7223 7.97192 29.4094 7.83202 30.0747 7.64042C29.4929 8.29251 28.8404 8.88189 28.131 9.39483L27.9124 9.55294L27.9245 9.82249C27.9362 10.0824 27.9427 10.3442 27.9427 10.6027C27.9427 18.5957 21.8624 27.7747 10.7693 27.7747C8.08803 27.7747 5.55333 27.1572 3.29302 26.0588C6.10114 25.9396 8.68098 24.9297 10.7551 23.3042L11.8634 22.4356L10.4555 22.4108Z" stroke="black"/>
        </g>
    </g>
    <defs>
        <filter id="filter0_d_1_944" x="-2.75067" y="3.66934" width="38.2747" height="32.6053" filterUnits="userSpaceOnUse" color-interpolation-filters="sRGB">
            <feFlood flood-opacity="0" result="BackgroundImageFix"/>
            <feColorMatrix in="SourceAlpha" type="matrix" values="0 0 0 0 0 0 0 0 0 0 0 0 0 0 0 0 0 0 127 0" result="hardAlpha"/>
            <feOffset dy="4"/>
            <feGaussianBlur stdDeviation="2"/>
            <feComposite in2="hardAlpha" operator="out"/>
            <feColorMatrix type="matrix" values="0 0 0 0 0 0 0 0 0 0 0 0 0 0 0 0 0 0 0.25 0"/>
            <feBlend mode="normal" in2="BackgroundImageFix" result="effect1_dropShadow_1_944"/>
            <feBlend mode="normal" in="SourceGraphic" in2="effect1_dropShadow_1_944" result="shape"/>
        </filter>
        <clipPath id="clip0_1_944">
            <rect width="32" height="32" fill="white"/>
        </clipPath>
    </defs>
</svg>
